  <svg width="17" height="13" viewBox="0 0 17 13" fill="none" xmlns="http://www.w3.org/2000/svg">
              <path
                d="M0.428364 11.4008V12.5874C0.428364 12.7481 0.485352 12.8872 0.599326 13.0046C0.7133 13.1221 0.848269 13.1808 1.00423 13.1808H15.9769C16.1328 13.1808 16.2678 13.1221 16.3818 13.0046C16.4957 12.8872 16.5527 12.7481 16.5527 12.5874V11.4008C16.5527 11.2401 16.4957 11.1011 16.3818 10.9836C16.2678 10.8662 16.1328 10.8075 15.9769 10.8075H1.00423C0.848269 10.8075 0.7133 10.8662 0.599326 10.9836C0.485352 11.1011 0.428364 11.2401 0.428364 11.4008ZM3.88359 7.84088V9.02752C3.88359 9.18822 3.94057 9.32727 4.05455 9.4447C4.16852 9.56213 4.30349 9.62084 4.45946 9.62084H15.9769C16.1328 9.62084 16.2678 9.56213 16.3818 9.4447C16.4957 9.32727 16.5527 9.18822 16.5527 9.02752V7.84088C16.5527 7.68019 16.4957 7.54113 16.3818 7.4237C16.2678 7.30627 16.1328 7.24756 15.9769 7.24756H4.45946C4.30349 7.24756 4.16852 7.30627 4.05455 7.4237C3.94057 7.54113 3.88359 7.68019 3.88359 7.84088ZM1.5801 4.28096V5.4676C1.5801 5.62829 1.63709 5.76735 1.75107 5.88478C1.86504 6.0022 2.00001 6.06092 2.15598 6.06092H15.9769C16.1328 6.06092 16.2678 6.0022 16.3818 5.88478C16.4957 5.76735 16.5527 5.62829 16.5527 5.4676V4.28096C16.5527 4.12026 16.4957 3.9812 16.3818 3.86378C16.2678 3.74635 16.1328 3.68763 15.9769 3.68763H2.15598C2.00001 3.68763 1.86504 3.74635 1.75107 3.86378C1.63709 3.9812 1.5801 4.12026 1.5801 4.28096ZM5.03533 0.721029V1.90767C5.03533 2.06836 5.09231 2.20742 5.20629 2.32485C5.32026 2.44228 5.45523 2.50099 5.6112 2.50099H15.9769C16.1328 2.50099 16.2678 2.44228 16.3818 2.32485C16.4957 2.20742 16.5527 2.06836 16.5527 1.90767V0.721029C16.5527 0.560338 16.4957 0.421279 16.3818 0.303851C16.2678 0.186422 16.1328 0.127708 15.9769 0.127708H5.6112C5.45523 0.127708 5.32026 0.186422 5.20629 0.303851C5.09231 0.421279 5.03533 0.560338 5.03533 0.721029Z"
                fill="#353637" />
            </svg>